<svg width="143" height="55" viewBox="0 0 143 55" fill="none" xmlns="http://www.w3.org/2000/svg">
<path d="M48.626 21.3816C49.7005 21.3816 50.6305 21.5607 51.4161 21.9188C52.2133 22.277 52.8257 22.7853 53.2531 23.4439C53.6806 24.1024 53.8943 24.8823 53.8943 25.7834C53.8943 26.673 53.6806 27.4529 53.2531 28.123C52.8257 28.7815 52.2133 29.2899 51.4161 29.648C50.6305 29.9946 49.7005 30.1679 48.626 30.1679H46.1825V33.5126H43.375V21.3816H48.626ZM48.47 27.8804C49.3134 27.8804 49.9546 27.7013 50.3937 27.3431C50.8327 26.9734 51.0522 26.4535 51.0522 25.7834C51.0522 25.1018 50.8327 24.5819 50.3937 24.2237C49.9546 23.854 49.3134 23.6692 48.47 23.6692H46.1825V27.8804H48.47Z" fill="black"/>
<path d="M57.4237 25.4195C57.7472 24.9689 58.1805 24.6281 58.7235 24.397C59.278 24.166 59.9135 24.0504 60.6298 24.0504V26.5459C60.3294 26.5228 60.1272 26.5113 60.0232 26.5113C59.2491 26.5113 58.6426 26.7308 58.2036 27.1698C57.7645 27.5973 57.545 28.2443 57.545 29.1108V33.5126H54.8415V24.1891H57.4237V25.4195Z" fill="black"/>
<path d="M65.7226 33.6513C64.7406 33.6513 63.8568 33.4491 63.0711 33.0447C62.2971 32.6288 61.6905 32.0569 61.2515 31.329C60.8125 30.6012 60.5929 29.7751 60.5929 28.8508C60.5929 27.9266 60.8125 27.1005 61.2515 26.3726C61.6905 25.6448 62.2971 25.0787 63.0711 24.6743C63.8568 24.2584 64.7406 24.0504 65.7226 24.0504C66.7047 24.0504 67.5827 24.2584 68.3568 24.6743C69.1309 25.0787 69.7374 25.6448 70.1765 26.3726C70.6155 27.1005 70.835 27.9266 70.835 28.8508C70.835 29.7751 70.6155 30.6012 70.1765 31.329C69.7374 32.0569 69.1309 32.6288 68.3568 33.0447C67.5827 33.4491 66.7047 33.6513 65.7226 33.6513ZM65.7226 31.433C66.4158 31.433 66.982 31.202 67.421 30.7398C67.8716 30.2661 68.0969 29.6365 68.0969 28.8508C68.0969 28.0652 67.8716 27.4413 67.421 26.9792C66.982 26.5055 66.4158 26.2687 65.7226 26.2687C65.0294 26.2687 64.4575 26.5055 64.007 26.9792C63.5564 27.4413 63.3311 28.0652 63.3311 28.8508C63.3311 29.6365 63.5564 30.2661 64.007 30.7398C64.4575 31.202 65.0294 31.433 65.7226 31.433Z" fill="black"/>
<path d="M83.0921 21.3816V33.5126H80.7872L74.739 26.1474V33.5126H71.9662V21.3816H74.2884L80.3193 28.7469V21.3816H83.0921Z" fill="black"/>
<path d="M88.6657 24.0504C90.1099 24.0504 91.219 24.397 91.9931 25.0902C92.7672 25.7719 93.1542 26.8059 93.1542 28.1923V33.5126H90.624V32.3515C90.1157 33.218 89.1683 33.6513 87.7819 33.6513C87.0656 33.6513 86.4417 33.53 85.9103 33.2873C85.3904 33.0447 84.9918 32.7097 84.7145 32.2822C84.4372 31.8547 84.2986 31.3695 84.2986 30.8265C84.2986 29.96 84.6221 29.2783 85.269 28.7815C85.9276 28.2847 86.9385 28.0363 88.3018 28.0363H90.4507C90.4507 27.4471 90.2717 26.9965 89.9135 26.6846C89.5553 26.3611 89.0181 26.1993 88.3018 26.1993C87.805 26.1993 87.314 26.2802 86.8288 26.442C86.3551 26.5922 85.9507 26.8001 85.6156 27.0658L84.6452 25.1769C85.1535 24.8187 85.7601 24.5414 86.4648 24.345C87.1811 24.1486 87.9148 24.0504 88.6657 24.0504ZM88.4578 31.8316C88.9199 31.8316 89.3301 31.7276 89.6882 31.5197C90.0464 31.3002 90.3005 30.9824 90.4507 30.5665V29.6134H88.5964C87.4873 29.6134 86.9327 29.9773 86.9327 30.7052C86.9327 31.0518 87.0656 31.329 87.3313 31.537C87.6086 31.7334 87.9841 31.8316 88.4578 31.8316Z" fill="black"/>
<path d="M100.748 33.062C100.482 33.2585 100.153 33.4086 99.7602 33.5126C99.379 33.6051 98.9746 33.6513 98.5471 33.6513C97.438 33.6513 96.5773 33.3682 95.9649 32.8021C95.3642 32.236 95.0638 31.4041 95.0638 30.3066V26.4766H93.6254V24.397H95.0638V22.1268H97.7673V24.397H100.089V26.4766H97.7673V30.2719C97.7673 30.6647 97.8655 30.9709 98.0619 31.1904C98.2698 31.3984 98.5587 31.5023 98.9284 31.5023C99.3559 31.5023 99.7198 31.3868 100.02 31.1557L100.748 33.062Z" fill="black"/>
<path d="M110.792 24.1891V33.5126H108.227V32.4035C107.869 32.8079 107.442 33.1198 106.945 33.3393C106.448 33.5473 105.911 33.6513 105.333 33.6513C104.108 33.6513 103.138 33.2989 102.422 32.5941C101.705 31.8894 101.347 30.8438 101.347 29.4574V24.1891H104.051V29.0588C104.051 30.5607 104.68 31.3117 105.94 31.3117C106.587 31.3117 107.106 31.1038 107.499 30.6878C107.892 30.2604 108.089 29.6307 108.089 28.7989V24.1891H110.792Z" fill="black"/>
<path d="M115.012 25.4195C115.336 24.9689 115.769 24.6281 116.312 24.397C116.867 24.166 117.502 24.0504 118.218 24.0504V26.5459C117.918 26.5228 117.716 26.5113 117.612 26.5113C116.838 26.5113 116.231 26.7308 115.792 27.1698C115.353 27.5973 115.134 28.2443 115.134 29.1108V33.5126H112.43V24.1891H115.012V25.4195Z" fill="black"/>
<path d="M128.008 28.8855C128.008 28.9202 127.99 29.1628 127.956 29.6134H120.902C121.029 30.191 121.33 30.6474 121.804 30.9824C122.277 31.3175 122.866 31.485 123.571 31.485C124.056 31.485 124.484 31.4157 124.854 31.2771C125.235 31.1269 125.587 30.8958 125.911 30.5839L127.349 32.1436C126.471 33.1487 125.189 33.6513 123.502 33.6513C122.45 33.6513 121.52 33.4491 120.712 33.0447C119.903 32.6288 119.279 32.0569 118.84 31.329C118.401 30.6012 118.182 29.7751 118.182 28.8508C118.182 27.9381 118.395 27.1178 118.823 26.39C119.262 25.6506 119.857 25.0787 120.608 24.6743C121.37 24.2584 122.219 24.0504 123.155 24.0504C124.068 24.0504 124.894 24.2468 125.633 24.6396C126.373 25.0325 126.951 25.5986 127.366 26.338C127.794 27.0658 128.008 27.915 128.008 28.8855ZM123.173 26.0954C122.56 26.0954 122.046 26.2687 121.63 26.6153C121.214 26.9619 120.96 27.4356 120.868 28.0363H125.46C125.368 27.4471 125.114 26.9792 124.698 26.6326C124.282 26.2744 123.773 26.0954 123.173 26.0954Z" fill="black"/>
<path fill-rule="evenodd" clip-rule="evenodd" d="M27.982 14.6257C27.5701 14.3875 27.0622 14.3875 26.6503 14.6257C23.7245 16.3182 21.7512 19.4849 21.7512 23.114C21.7512 23.6312 21.7913 24.1391 21.8685 24.6346C19.8544 23.9506 17.6736 24.1995 15.8924 25.2259C15.4801 25.4635 15.2262 25.9033 15.2266 26.3792C15.2287 28.8897 16.5328 31.3364 18.8685 32.685C20.0144 33.3465 21.265 33.6609 22.4987 33.6615C22.311 34.1934 22.2089 34.7656 22.2089 35.3617C22.2089 38.1822 24.4954 40.4687 27.316 40.4687C30.1366 40.4687 32.4231 38.1822 32.4231 35.3617C32.4231 34.7643 32.3205 34.1909 32.132 33.658C33.2921 33.6214 34.4606 33.3063 35.5367 32.6851C37.8723 31.3366 39.1765 28.8898 39.1786 26.3793C39.179 25.9034 38.9251 25.4636 38.5128 25.226C36.8017 24.24 34.7219 23.9715 32.7754 24.5582C32.845 24.0869 32.8811 23.6047 32.8811 23.114C32.8811 19.4849 30.9078 16.3182 27.982 14.6257ZM24.4107 23.114C24.4107 20.7573 25.5518 18.6659 27.3162 17.3642C29.0805 18.6659 30.2216 20.7573 30.2216 23.114C30.2216 25.4706 29.0805 27.562 27.3162 28.8638C25.5518 27.562 24.4107 25.4706 24.4107 23.114ZM32.5606 27.5303C33.7886 26.8213 35.2075 26.7388 36.4471 27.1875C36.2158 28.4853 35.4349 29.6728 34.2069 30.3818C32.9789 31.0909 31.5599 31.1733 30.3204 30.7247C30.5517 29.4269 31.3325 28.2393 32.5606 27.5303ZM17.9581 27.1874C19.1976 26.7387 20.6166 26.8212 21.8446 27.5302C23.0726 28.2392 23.8535 29.4268 24.0847 30.7246C22.8452 31.1732 21.4263 31.0907 20.1983 30.3817C18.9702 29.6727 18.1893 28.4851 17.9581 27.1874ZM24.8684 35.3617C24.8684 34.0099 25.9642 32.9141 27.316 32.9141C28.6677 32.9141 29.7636 34.0099 29.7636 35.3617C29.7636 36.7134 28.6677 37.8092 27.316 37.8092C25.9642 37.8092 24.8684 36.7134 24.8684 35.3617Z" fill="black"/>
</svg>
