<svg width="123" height="50" viewBox="0 0 123 50" fill="none" xmlns="http://www.w3.org/2000/svg">
<path d="M46.9775 34.067C44.8306 34.067 43.156 33.4731 41.9538 32.2851C40.7658 31.0972 40.1719 29.4012 40.1719 27.197V18.7812H43.6498V27.0682C43.6498 29.759 44.7662 31.1043 46.999 31.1043C48.0867 31.1043 48.9168 30.7823 49.4893 30.1382C50.0618 29.4799 50.3481 28.4565 50.3481 27.0682V18.7812H53.7831V27.197C53.7831 29.4012 53.182 31.0972 51.9797 32.2851C50.7918 33.4731 49.1244 34.067 46.9775 34.067Z" fill="black"/>
<path d="M55.481 26.4241H61.5566V29.1077H55.481V26.4241Z" fill="black"/>
<path d="M65.6917 21.6151H60.8827V18.7812H73.9787V21.6151H69.1697V33.8094H65.6917V21.6151Z" fill="black"/>
<path d="M85.9249 22.2592V33.8094H82.7475V32.4354C82.3038 32.9363 81.7743 33.3228 81.1588 33.5947C80.5434 33.8523 79.8779 33.9812 79.1622 33.9812C77.6451 33.9812 76.4429 33.5446 75.5555 32.6716C74.6681 31.7985 74.2244 30.5032 74.2244 28.7857V22.2592H77.5735V28.2919C77.5735 30.1526 78.3536 31.0829 79.9136 31.0829C80.7151 31.0829 81.3592 30.8252 81.8458 30.31C82.3325 29.7804 82.5758 29.0004 82.5758 27.9699V22.2592H85.9249Z" fill="black"/>
<path d="M91.1531 23.7835C91.5538 23.2253 92.0905 22.8031 92.7632 22.5168C93.4502 22.2306 94.2374 22.0874 95.1248 22.0874V25.179C94.7527 25.1503 94.5022 25.136 94.3734 25.136C93.4144 25.136 92.663 25.408 92.1192 25.9518C91.5753 26.4814 91.3033 27.2829 91.3033 28.3563V33.8094H87.9542V22.2592H91.1531V23.7835Z" fill="black"/>
<path d="M103.063 22.0874C104.494 22.0874 105.646 22.5168 106.52 23.3756C107.407 24.2343 107.851 25.5081 107.851 27.197V33.8094H104.501V27.7123C104.501 26.7963 104.301 26.1164 103.9 25.6727C103.5 25.2147 102.92 24.9857 102.161 24.9857C101.317 24.9857 100.644 25.2505 100.143 25.7801C99.6424 26.2953 99.3919 27.0682 99.3919 28.0987V33.8094H96.0428V22.2592H99.2416V23.6117C99.6853 23.1251 100.236 22.753 100.895 22.4954C101.553 22.2234 102.276 22.0874 103.063 22.0874Z" fill="black"/>
<path fill-rule="evenodd" clip-rule="evenodd" d="M25.2099 14.8754C25.7811 14.3042 26.7071 14.3042 27.2782 14.8754L32.6267 20.2239L27.2539 25.3524C26.6696 25.9101 25.7439 25.8886 25.1862 25.3043C24.6284 24.7201 24.65 23.7943 25.2342 23.2366L26.8838 21.662H23.3191C20.4651 21.662 18.1516 23.9756 18.1516 26.8295C18.1516 29.6835 20.4651 31.997 23.3191 31.997H30.5341C31.3418 31.997 31.9966 32.6518 31.9966 33.4595C31.9966 34.2672 31.3418 34.922 30.5341 34.922H23.3191C18.8497 34.922 15.2266 31.2989 15.2266 26.8295C15.2266 22.3602 18.8497 18.737 23.3191 18.737H27.0033L25.2099 16.9437C24.6388 16.3725 24.6388 15.4465 25.2099 14.8754Z" fill="black"/>
</svg>
