<svg width="130" height="53" viewBox="0 0 130 53" fill="none" xmlns="http://www.w3.org/2000/svg">
<path d="M51.8832 34.785C50.2579 34.785 48.8378 34.4156 47.6229 33.6768C46.408 32.938 45.464 31.9119 44.7909 30.5985C44.1178 29.2687 43.7812 27.7255 43.7812 25.9689C43.7812 24.1958 44.126 22.6362 44.8155 21.29C45.5215 19.9273 46.5147 18.8684 47.7953 18.1132C49.0922 17.3416 50.6273 16.9558 52.4003 16.9558C54.4196 16.9558 56.0942 17.4401 57.424 18.4087C58.7538 19.3773 59.6157 20.7154 60.0097 22.4227H56.4882C56.2255 21.6183 55.7494 20.9944 55.0599 20.5512C54.3704 20.0915 53.4839 19.8617 52.4003 19.8617C50.6765 19.8617 49.3467 20.4116 48.4109 21.5116C47.4751 22.5951 47.0072 24.0891 47.0072 25.9935C47.0072 27.8979 47.4669 29.3755 48.3863 30.4262C49.3221 31.4605 50.5862 31.9776 52.1787 31.9776C53.7383 31.9776 54.9122 31.559 55.7002 30.7217C56.5046 29.868 56.9889 28.7516 57.1531 27.3726H52.7943V25.0085H60.3299V34.4894H57.424L57.1777 32.2239C56.6196 33.0447 55.9218 33.6768 55.0845 34.1201C54.2473 34.5633 53.1801 34.785 51.8832 34.785Z" fill="black"/>
<path d="M62.0891 34.4894V16.7588H65.2412V34.4894H62.0891Z" fill="black"/>
<path d="M73.0917 34.785C71.9096 34.785 70.8425 34.5141 69.8903 33.9723C68.9545 33.4305 68.2075 32.6835 67.6493 31.7313C67.1076 30.7627 66.8367 29.6463 66.8367 28.3822C66.8367 27.1181 67.1158 26.0099 67.674 25.0577C68.2321 24.0891 68.9791 23.3339 69.9149 22.7921C70.8671 22.2504 71.9342 21.9795 73.1163 21.9795C74.2819 21.9795 75.3326 22.2504 76.2684 22.7921C77.2206 23.3339 77.9676 24.0891 78.5094 25.0577C79.0675 26.0099 79.3466 27.1181 79.3466 28.3822C79.3466 29.6463 79.0675 30.7627 78.5094 31.7313C77.9676 32.6835 77.2206 33.4305 76.2684 33.9723C75.3162 34.5141 74.2573 34.785 73.0917 34.785ZM73.0917 32.0515C73.9125 32.0515 74.6267 31.7478 75.2341 31.1403C75.8416 30.5165 76.1453 29.5971 76.1453 28.3822C76.1453 27.1673 75.8416 26.2562 75.2341 25.6487C74.6267 25.0249 73.9207 24.713 73.1163 24.713C72.279 24.713 71.5566 25.0249 70.9492 25.6487C70.3582 26.2562 70.0627 27.1673 70.0627 28.3822C70.0627 29.5971 70.3582 30.5165 70.9492 31.1403C71.5566 31.7478 72.2708 32.0515 73.0917 32.0515Z" fill="black"/>
<path d="M85.982 34.785C84.8984 34.785 83.9462 34.6126 83.1254 34.2678C82.3045 33.9066 81.6478 33.4141 81.1553 32.7903C80.6628 32.1664 80.3673 31.444 80.2688 30.6232H83.4455C83.544 31.0993 83.8067 31.5097 84.2335 31.8545C84.6768 32.1828 85.2432 32.347 85.9327 32.347C86.6223 32.347 87.123 32.2074 87.4349 31.9283C87.7633 31.6493 87.9274 31.3291 87.9274 30.9679C87.9274 30.4426 87.6976 30.0896 87.2379 29.909C86.7782 29.712 86.1379 29.5232 85.3171 29.3426C84.7917 29.2277 84.2582 29.0882 83.7164 28.924C83.1746 28.7598 82.6739 28.5546 82.2142 28.3083C81.7709 28.0457 81.4098 27.7173 81.1307 27.3233C80.8516 26.9129 80.712 26.4121 80.712 25.8211C80.712 24.7376 81.1389 23.8264 81.9926 23.0876C82.8627 22.3489 84.0776 21.9795 85.6372 21.9795C87.0819 21.9795 88.2311 22.316 89.0848 22.9891C89.955 23.6623 90.4721 24.5898 90.6363 25.7719H87.6565C87.4759 24.8689 86.7946 24.4174 85.6126 24.4174C85.0216 24.4174 84.5619 24.5324 84.2335 24.7622C83.9216 24.9921 83.7656 25.2794 83.7656 25.6241C83.7656 25.9853 84.0037 26.2726 84.4798 26.486C84.9559 26.6994 85.588 26.8965 86.376 27.077C87.2297 27.2741 88.0095 27.4957 88.7155 27.7419C89.4378 27.9718 90.0124 28.3248 90.4393 28.8009C90.8661 29.2605 91.0795 29.9254 91.0795 30.7956C91.096 31.5508 90.8989 32.2321 90.4885 32.8395C90.0781 33.4469 89.4871 33.923 88.7155 34.2678C87.9438 34.6126 87.0327 34.785 85.982 34.785Z" fill="black"/>
<path d="M97.6889 34.785C96.6054 34.785 95.6532 34.6126 94.8323 34.2678C94.0114 33.9066 93.3547 33.4141 92.8622 32.7903C92.3697 32.1664 92.0742 31.444 91.9757 30.6232H95.1524C95.2509 31.0993 95.5136 31.5097 95.9405 31.8545C96.3837 32.1828 96.9501 32.347 97.6396 32.347C98.3292 32.347 98.8299 32.2074 99.1418 31.9283C99.4702 31.6493 99.6343 31.3291 99.6343 30.9679C99.6343 30.4426 99.4045 30.0896 98.9448 29.909C98.4851 29.712 97.8449 29.5232 97.024 29.3426C96.4986 29.2277 95.9651 29.0882 95.4233 28.924C94.8815 28.7598 94.3808 28.5546 93.9211 28.3083C93.4779 28.0457 93.1167 27.7173 92.8376 27.3233C92.5585 26.9129 92.419 26.4121 92.419 25.8211C92.419 24.7376 92.8458 23.8264 93.6995 23.0876C94.5696 22.3489 95.7845 21.9795 97.3441 21.9795C98.7889 21.9795 99.9381 22.316 100.792 22.9891C101.662 23.6623 102.179 24.5898 102.343 25.7719H99.3635C99.1829 24.8689 98.5016 24.4174 97.3195 24.4174C96.7285 24.4174 96.2688 24.5324 95.9405 24.7622C95.6285 24.9921 95.4726 25.2794 95.4726 25.6241C95.4726 25.9853 95.7106 26.2726 96.1867 26.486C96.6628 26.6994 97.2949 26.8965 98.0829 27.077C98.9366 27.2741 99.7164 27.4957 100.422 27.7419C101.145 27.9718 101.719 28.3248 102.146 28.8009C102.573 29.2605 102.786 29.9254 102.786 30.7956C102.803 31.5508 102.606 32.2321 102.195 32.8395C101.785 33.4469 101.194 33.923 100.422 34.2678C99.6508 34.6126 98.7396 34.785 97.6889 34.785Z" fill="black"/>
<path d="M105.225 39.9071L108.057 33.6768H107.318L102.565 22.275H105.988L109.411 30.8694L112.982 22.275H116.331L108.574 39.9071H105.225Z" fill="black"/>
<path d="M20.5816 32.5162L33.006 20.0917L30.9629 18.0486L18.5385 30.4731L20.5816 32.5162Z" fill="black"/>
<path d="M25.4936 20.0917L20.5816 25.0037L18.5385 22.9606L23.4505 18.0486L25.4936 20.0917Z" fill="black"/>
<path d="M28.0941 32.5162L33.006 27.6042L30.9629 25.5611L26.0509 30.4731L28.0941 32.5162Z" fill="black"/>
<path fill-rule="evenodd" clip-rule="evenodd" d="M13.7812 37.2735V13.0024H38.0523V37.2735H13.7812ZM16.6707 15.8918H35.1629V34.3841H16.6707V15.8918Z" fill="black"/>
</svg>
