<svg width="187" height="52" viewBox="0 0 187 52" fill="none" xmlns="http://www.w3.org/2000/svg">
<path d="M44.5469 35.1662V15.0632H48.2229L57.6713 29.2215V15.0632H61.3472V35.1662H57.6713L48.2229 21.0367V35.1662H44.5469Z" fill="black"/>
<path d="M70.6435 35.5109C69.2076 35.5109 67.9344 35.2045 66.824 34.5919C65.7135 33.9792 64.8424 33.1176 64.2106 32.0072C63.5788 30.8967 63.2629 29.614 63.2629 28.1589C63.2629 26.6847 63.5692 25.3732 64.1818 24.2245C64.8137 23.0757 65.6752 22.1854 66.7665 21.5536C67.877 20.9027 69.1789 20.5772 70.6722 20.5772C72.0699 20.5772 73.3048 20.8835 74.3769 21.4962C75.4491 22.1089 76.2819 22.9513 76.8754 24.0234C77.4881 25.0764 77.7944 26.2539 77.7944 27.5558C77.7944 27.7664 77.7849 27.9866 77.7657 28.2163C77.7657 28.4461 77.7562 28.6854 77.737 28.9343H66.9101C66.9867 30.0447 67.3696 30.9159 68.0589 31.5477C68.7672 32.1795 69.6192 32.4954 70.6148 32.4954C71.3615 32.4954 71.9837 32.3327 72.4815 32.0072C72.9984 31.6626 73.3814 31.2222 73.6303 30.6861H77.3637C77.0956 31.586 76.6457 32.4092 76.0139 33.1559C75.4012 33.8835 74.6354 34.4578 73.7164 34.879C72.8166 35.3002 71.7923 35.5109 70.6435 35.5109ZM70.6722 23.5639C69.7724 23.5639 68.9778 23.8224 68.2886 24.3393C67.5994 24.8371 67.159 25.6029 66.9675 26.6368H74.061C74.0036 25.6987 73.659 24.952 73.0272 24.3968C72.3954 23.8415 71.6104 23.5639 70.6722 23.5639Z" fill="black"/>
<path d="M77.1189 35.1662L82.2882 28.044L77.1189 20.9218H81.0533L84.6719 25.9763L88.2617 20.9218H92.2248L87.0268 28.044L92.2248 35.1662H88.2617L84.6719 30.1118L81.0533 35.1662H77.1189Z" fill="black"/>
<path d="M99.4776 35.1662C97.9843 35.1662 96.7877 34.8025 95.8878 34.0749C94.988 33.3474 94.538 32.055 94.538 30.1979V23.9947H92.097V20.9218H94.538L94.9688 17.1023H98.214V20.9218H102.062V23.9947H98.214V30.2266C98.214 30.9159 98.3576 31.3945 98.6448 31.6626C98.9511 31.9115 99.4681 32.0359 100.196 32.0359H101.976V35.1662H99.4776Z" fill="black"/>
<path d="M103.782 35.1662V20.9218H107.028L107.344 22.846C107.803 22.1567 108.406 21.6111 109.153 21.209C109.919 20.7878 110.799 20.5772 111.795 20.5772C113.997 20.5772 115.557 21.4292 116.476 23.1331C116.993 22.3482 117.682 21.7259 118.544 21.2664C119.425 20.8069 120.382 20.5772 121.416 20.5772C123.273 20.5772 124.699 21.1324 125.695 22.2429C126.69 23.3533 127.188 24.9807 127.188 27.125V35.1662H123.512V27.4697C123.512 26.2443 123.273 25.3062 122.794 24.6552C122.335 24.0043 121.617 23.6788 120.64 23.6788C119.645 23.6788 118.841 24.0426 118.228 24.7701C117.634 25.4976 117.338 26.5124 117.338 27.8143V35.1662H113.662V27.4697C113.662 26.2443 113.422 25.3062 112.944 24.6552C112.465 24.0043 111.728 23.6788 110.732 23.6788C109.756 23.6788 108.961 24.0426 108.349 24.7701C107.755 25.4976 107.458 26.5124 107.458 27.8143V35.1662H103.782Z" fill="black"/>
<path d="M136.077 35.5109C134.699 35.5109 133.454 35.1949 132.344 34.5631C131.252 33.9313 130.381 33.0602 129.73 31.9497C129.099 30.8202 128.783 29.5182 128.783 28.044C128.783 26.5698 129.108 25.2775 129.759 24.167C130.41 23.0374 131.281 22.1567 132.373 21.5249C133.483 20.8931 134.727 20.5772 136.106 20.5772C137.465 20.5772 138.691 20.8931 139.782 21.5249C140.892 22.1567 141.763 23.0374 142.395 24.167C143.046 25.2775 143.372 26.5698 143.372 28.044C143.372 29.5182 143.046 30.8202 142.395 31.9497C141.763 33.0602 140.892 33.9313 139.782 34.5631C138.671 35.1949 137.437 35.5109 136.077 35.5109ZM136.077 32.3231C137.034 32.3231 137.867 31.9689 138.576 31.2605C139.284 30.533 139.638 29.4608 139.638 28.044C139.638 26.6272 139.284 25.5647 138.576 24.8563C137.867 24.1287 137.044 23.765 136.106 23.765C135.129 23.765 134.287 24.1287 133.579 24.8563C132.889 25.5647 132.545 26.6272 132.545 28.044C132.545 29.4608 132.889 30.533 133.579 31.2605C134.287 31.9689 135.12 32.3231 136.077 32.3231Z" fill="black"/>
<path d="M148.37 35.1662L143.143 20.9218H146.991L150.61 31.6913L154.228 20.9218H158.077L152.821 35.1662H148.37Z" fill="black"/>
<path d="M165.179 35.5109C163.743 35.5109 162.47 35.2045 161.36 34.5919C160.249 33.9792 159.378 33.1176 158.746 32.0072C158.114 30.8967 157.799 29.614 157.799 28.1589C157.799 26.6847 158.105 25.3732 158.718 24.2245C159.349 23.0757 160.211 22.1854 161.302 21.5536C162.413 20.9027 163.715 20.5772 165.208 20.5772C166.606 20.5772 167.84 20.8835 168.913 21.4962C169.985 22.1089 170.818 22.9513 171.411 24.0234C172.024 25.0764 172.33 26.2539 172.33 27.5558C172.33 27.7664 172.321 27.9866 172.301 28.2163C172.301 28.4461 172.292 28.6854 172.273 28.9343H161.446C161.522 30.0447 161.905 30.9159 162.595 31.5477C163.303 32.1795 164.155 32.4954 165.15 32.4954C165.897 32.4954 166.519 32.3327 167.017 32.0072C167.534 31.6626 167.917 31.2222 168.166 30.6861H171.899C171.631 31.586 171.181 32.4092 170.55 33.1559C169.937 33.8835 169.171 34.4578 168.252 34.879C167.352 35.3002 166.328 35.5109 165.179 35.5109ZM165.208 23.5639C164.308 23.5639 163.514 23.8224 162.824 24.3393C162.135 24.8371 161.695 25.6029 161.503 26.6368H168.597C168.539 25.6987 168.195 24.952 167.563 24.3968C166.931 23.8415 166.146 23.5639 165.208 23.5639Z" fill="black"/>
<path d="M26.423 14.6725V23.7603C26.423 24.7975 25.5822 25.6384 24.5449 25.6384L15.4571 25.6384L15.4571 21.8822H20.0057L15.2266 17.1031L17.8826 14.447L22.6668 19.2312L22.6668 14.6725L26.423 14.6725Z" fill="black"/>
<path d="M37.5173 25.7672H28.4295C27.3923 25.7672 26.5514 26.6081 26.5514 27.6453V36.7331L30.3076 36.7331L30.3076 32.1841L35.0871 36.9636L37.7431 34.3075L32.959 29.5234H37.5173V25.7672Z" fill="black"/>
</svg>
