<svg width="104" height="35" viewBox="0 0 104 35" fill="none" xmlns="http://www.w3.org/2000/svg">
<path d="M13.25 22.8909H24.2394V27.1911C24.2394 28.2466 23.3837 29.1022 22.3282 29.1022H15.1612C14.1057 29.1022 13.25 28.2466 13.25 27.1911V22.8909Z" fill="black"/>
<path fill-rule="evenodd" clip-rule="evenodd" d="M16.1122 6.01908C13.4955 6.55176 11.1898 7.9399 9.49987 9.87875C9.49981 9.87871 9.49993 9.87878 9.49987 9.87875C7.67057 11.9774 6.5625 14.7211 6.5625 17.7238V18.1405C6.56259 18.1404 6.56269 18.1402 6.56278 18.14V18.578C6.56278 18.6721 6.56278 18.7192 6.56373 18.759C6.60622 20.5437 8.04299 21.9805 9.82778 22.023C9.86757 22.024 9.91462 22.024 10.0087 22.024H27.0068C27.1009 22.024 27.1479 22.024 27.1877 22.023C28.9725 21.9805 30.4093 20.5437 30.4518 18.759C30.4527 18.7192 30.4527 18.6721 30.4527 18.578V17.7238C30.4527 11.1268 25.1048 5.77881 18.5077 5.77881C17.6874 5.77881 16.8861 5.86156 16.1122 6.01908C16.1122 6.0191 16.1122 6.01906 16.1122 6.01908ZM16.053 7.00961C15.6969 9.02548 13.9365 10.5568 11.8185 10.5568C11.3184 10.5568 10.8382 10.4714 10.3918 10.3144C11.8737 8.69201 13.8357 7.51551 16.053 7.00961ZM21.9781 7.2936C22.4421 9.16756 24.135 10.5568 26.1524 10.5568C26.3715 10.5568 26.5868 10.5404 26.7971 10.5088C25.521 9.04386 23.8629 7.92042 21.9781 7.2936ZM29.4652 16.8796C28.7082 16.2153 27.716 15.8125 26.6298 15.8125C24.2549 15.8125 22.3296 17.7378 22.3296 20.1127C22.3296 20.4412 22.3664 20.761 22.4362 21.0684H27.0068C27.1064 21.0684 27.1394 21.0683 27.165 21.0677C28.4398 21.0373 29.4661 20.0111 29.4964 18.7362C29.497 18.7107 29.4971 18.6776 29.4971 18.578V17.7238C29.4971 17.4398 29.4863 17.1582 29.4652 16.8796ZM14.5784 21.0684C14.6481 20.761 14.685 20.4412 14.685 20.1127C14.685 17.7378 12.7597 15.8125 10.3848 15.8125C9.29899 15.8125 8.30718 16.2149 7.55038 16.8788C7.52918 17.1577 7.51838 17.4395 7.51838 17.7238V18.578C7.51838 18.6776 7.51845 18.7107 7.51906 18.7362C7.5494 20.0111 8.57567 21.0373 9.85052 21.0677C9.87608 21.0683 9.90912 21.0684 10.0087 21.0684H14.5784ZM22.8077 13.9014C22.8077 16.2763 20.8825 18.2015 18.5075 18.2015C16.1326 18.2015 14.2074 16.2763 14.2074 13.9014C14.2074 11.5264 16.1326 9.60117 18.5075 9.60117C20.8825 9.60117 22.8077 11.5264 22.8077 13.9014Z" fill="black"/>
<path d="M37.5938 23.693V9.6189H40.0958V23.693H37.5938Z" fill="black"/>
<path d="M46.386 23.9276C45.4086 23.9276 44.542 23.7191 43.7862 23.3021C43.0303 22.8851 42.4374 22.2987 42.0073 21.5428C41.5773 20.787 41.3623 19.9139 41.3623 18.9235C41.3623 17.92 41.5708 17.0274 41.9878 16.2455C42.4178 15.4636 43.0043 14.8576 43.7471 14.4276C44.5029 13.9845 45.389 13.7629 46.4055 13.7629C47.3568 13.7629 48.1974 13.9715 48.9271 14.3885C49.6569 14.8055 50.2238 15.3789 50.6278 16.1086C51.0448 16.8254 51.2533 17.6268 51.2533 18.513C51.2533 18.6563 51.2468 18.8062 51.2337 18.9626C51.2337 19.1189 51.2272 19.2818 51.2142 19.4512H43.8448C43.8969 20.2071 44.1576 20.8 44.6267 21.2301C45.1089 21.6601 45.6888 21.8751 46.3664 21.8751C46.8746 21.8751 47.2982 21.7644 47.637 21.5428C47.9889 21.3083 48.2495 21.0085 48.4189 20.6436H50.9601C50.7776 21.2561 50.4714 21.8165 50.0413 22.3247C49.6243 22.8199 49.1031 23.2109 48.4775 23.4976C47.8651 23.7843 47.1679 23.9276 46.386 23.9276ZM46.4055 15.7959C45.793 15.7959 45.2522 15.9718 44.7831 16.3237C44.3139 16.6625 44.0142 17.1837 43.8839 17.8875H48.7121C48.673 17.2489 48.4384 16.7407 48.0084 16.3628C47.5784 15.9848 47.0441 15.7959 46.4055 15.7959Z" fill="black"/>
<path d="M54.6179 23.693L51.0602 13.9975H53.6796L56.1426 21.3278L58.6055 13.9975H61.2249L57.6477 23.693H54.6179Z" fill="black"/>
<path d="M66.0594 23.9276C65.082 23.9276 64.2154 23.7191 63.4596 23.3021C62.7037 22.8851 62.1108 22.2987 61.6807 21.5428C61.2507 20.787 61.0357 19.9139 61.0357 18.9235C61.0357 17.92 61.2442 17.0274 61.6612 16.2455C62.0912 15.4636 62.6777 14.8576 63.4205 14.4276C64.1763 13.9845 65.0624 13.7629 66.0789 13.7629C67.0302 13.7629 67.8708 13.9715 68.6005 14.3885C69.3303 14.8055 69.8972 15.3789 70.3012 16.1086C70.7182 16.8254 70.9267 17.6268 70.9267 18.513C70.9267 18.6563 70.9202 18.8062 70.9071 18.9626C70.9071 19.1189 70.9006 19.2818 70.8876 19.4512H63.5182C63.5703 20.2071 63.831 20.8 64.3001 21.2301C64.7823 21.6601 65.3622 21.8751 66.0398 21.8751C66.5481 21.8751 66.9716 21.7644 67.3104 21.5428C67.6623 21.3083 67.9229 21.0085 68.0923 20.6436H70.6335C70.451 21.2561 70.1448 21.8165 69.7147 22.3247C69.2977 22.8199 68.7765 23.2109 68.1509 23.4976C67.5385 23.7843 66.8413 23.9276 66.0594 23.9276ZM66.0789 15.7959C65.4664 15.7959 64.9256 15.9718 64.4565 16.3237C63.9873 16.6625 63.6876 17.1837 63.5573 17.8875H68.3855C68.3464 17.2489 68.1118 16.7407 67.6818 16.3628C67.2518 15.9848 66.7175 15.7959 66.0789 15.7959Z" fill="black"/>
<path d="M72.0537 23.693V9.6189H74.5558V23.693H72.0537Z" fill="black"/>
<path d="M79.7708 23.9276C78.5589 23.9276 77.6206 23.5497 76.956 22.7939C76.3044 22.038 75.9786 20.9303 75.9786 19.4708V13.9975H78.4611V19.2362C78.4611 20.0702 78.6305 20.7088 78.9694 21.1519C79.3082 21.5949 79.8425 21.8165 80.5723 21.8165C81.2629 21.8165 81.8298 21.5689 82.2729 21.0737C82.729 20.5785 82.957 19.8878 82.957 19.0017V13.9975H85.4591V23.693H83.2502L83.0548 22.0511C82.755 22.6244 82.3185 23.0805 81.7451 23.4194C81.1847 23.7582 80.5266 23.9276 79.7708 23.9276Z" fill="black"/>
<path d="M87.0502 27.9935V13.9975H89.2786L89.5523 15.3854C89.8651 14.9553 90.2756 14.5774 90.7838 14.2516C91.3051 13.9258 91.9762 13.7629 92.7972 13.7629C93.7094 13.7629 94.5239 13.9845 95.2406 14.4276C95.9573 14.8706 96.5242 15.4766 96.9412 16.2455C97.3582 17.0143 97.5667 17.8875 97.5667 18.8648C97.5667 19.8422 97.3582 20.7153 96.9412 21.4842C96.5242 22.24 95.9573 22.8395 95.2406 23.2825C94.5239 23.7126 93.7094 23.9276 92.7972 23.9276C92.0674 23.9276 91.4289 23.7908 90.8815 23.5171C90.3342 23.2434 89.8911 22.859 89.5523 22.3638V27.9935H87.0502ZM92.2694 21.7383C93.0643 21.7383 93.7224 21.4711 94.2437 20.9368C94.7649 20.4026 95.0256 19.7119 95.0256 18.8648C95.0256 18.0178 94.7649 17.3206 94.2437 16.7733C93.7224 16.2259 93.0643 15.9523 92.2694 15.9523C91.4614 15.9523 90.7968 16.2259 90.2756 16.7733C89.7673 17.3075 89.5132 17.9982 89.5132 18.8453C89.5132 19.6923 89.7673 20.3895 90.2756 20.9368C90.7968 21.4711 91.4614 21.7383 92.2694 21.7383Z" fill="black"/>
</svg>
