<svg width="2400" height="1280" viewBox="0 0 2400 1280" fill="none" xmlns="http://www.w3.org/2000/svg">
<g clip-path="url(#clip0_1270_9596)">
<path opacity="0.36" fill-rule="evenodd" clip-rule="evenodd" d="M1854.74 1.32855H2088.57V192.648L1854.74 192.648V1.32855ZM2088.57 377.324V193.976L1854.74 193.976V377.324L2088.57 377.324ZM2088.57 378.653V562H1854.74V378.653L2088.57 378.653ZM2088.57 746.676V563.329H1854.74V746.676H2088.57ZM2088.57 748.005V931.353H1854.74V748.005H2088.57ZM2088.57 1116.03V932.682H1854.74V1116.03H2088.57ZM2088.57 1117.36V1300.71L1854.74 1300.71V1117.36H2088.57ZM2323.74 1300.71L2089.9 1300.71V1117.36L2323.74 1117.36V1300.71ZM2558.9 1300.71H2325.07V1117.36H2558.9V1300.71ZM2794.06 1300.71H2560.23V1117.36H2794.06V1300.71ZM2998.67 1300.71H2795.39V1117.36H2998.67V1300.71ZM3000 1302.03V1300.71L3000 1117.36V1116.03V932.681V931.353V748.005V746.676V563.329V562V378.653V377.324V193.976V192.648L3000 1.32855V-5.18522e-05H2998.67H2795.39V-5.40898e-05L2794.06 -5.41479e-05V-5.18522e-05H2560.23V-5.40898e-05L2558.9 -5.41479e-05V-5.18522e-05H2325.07V-5.40898e-05L2323.74 -5.41479e-05V-5.18522e-05H2089.9V-0.000244083L2088.57 -0.000244141V-5.18522e-05H1854.74V-5.40898e-05L1853.41 -5.41479e-05V-5.18522e-05H1619.58V-5.40898e-05L1618.25 -5.41479e-05V-5.18522e-05H1384.41H1383.09L1383.09 0.000137096H-231.171H-232.5L-232.5 1.32874L-232.5 192.648L-232.5 193.977L-232.5 377.325L-232.5 378.653L-232.5 562L-232.5 563.329L-232.5 746.677L-232.5 748.006L-232.5 931.353L-232.5 932.682L-232.5 1116.03L-232.5 1117.36L-232.5 1300.71L-232.5 1302.03H-231.171L1383.09 1302.03H1384.41H2998.67H3000ZM1384.41 1300.71V1117.36H1618.25V1300.71H1384.41ZM1384.41 1116.03H1618.25V932.682H1384.41V1116.03ZM1384.41 931.353H1618.25V748.005H1384.41V931.353ZM1384.41 746.676H1618.25V563.329H1384.41V746.676ZM1384.41 562.001H1618.25V378.653L1384.41 378.653V562.001ZM1384.41 377.324L1618.25 377.324V193.976L1384.41 193.976V377.324ZM1384.41 192.648L1618.25 192.648V1.32855H1384.41L1384.41 1.32874L1384.41 192.648ZM1383.09 1.32874H1179.81V192.648L1383.09 192.648V1.32874ZM1383.09 193.976L1179.81 193.976V377.324L1383.09 377.324V193.976ZM1383.09 378.653L1179.81 378.653V562H1383.09V378.653ZM1383.09 563.329H1179.81V746.677H1383.09V563.329ZM1383.09 748.005H1179.81V931.353H1383.09V748.005ZM1383.09 932.682H1179.81V1116.03H1383.09V932.682ZM1383.09 1117.36H1179.81V1300.71L1383.09 1300.71L1383.09 1117.36ZM1619.58 1117.36V1300.71H1853.41V1117.36H1619.58ZM1853.41 1116.03V932.682L1619.58 932.682V1116.03H1853.41ZM2323.74 1116.03L2089.9 1116.03V932.682L2323.74 932.681V1116.03ZM2558.9 1116.03H2325.07V932.681H2558.9V1116.03ZM2794.06 1116.03H2560.23V932.681L2794.06 932.681V1116.03ZM2998.67 1116.03H2795.39V932.681H2998.67V1116.03ZM1853.41 748.005V931.353L1619.58 931.353V748.005L1853.41 748.005ZM2089.9 931.353H2323.74V748.005L2089.9 748.005V931.353ZM2325.07 931.353H2558.9V748.005H2325.07V931.353ZM2560.23 931.353L2794.06 931.353V748.005L2560.23 748.005V931.353ZM2795.39 931.353H2998.67V748.005H2795.39V931.353ZM1853.41 746.676V563.329L1619.58 563.329V746.676L1853.41 746.676ZM2323.74 746.676H2089.9V563.329L2323.74 563.329V746.676ZM2558.9 746.676H2325.07V563.329H2558.9V746.676ZM2794.06 746.676L2560.23 746.676V563.329L2794.06 563.329V746.676ZM2998.67 746.676H2795.39V563.329H2998.67V746.676ZM1853.41 378.653V562L1619.58 562.001V378.653H1853.41ZM2089.9 562H2323.74V378.653L2089.9 378.653V562ZM2325.07 562H2558.9V378.653L2325.07 378.653V562ZM2560.23 562L2794.06 562V378.653H2560.23V562ZM2795.39 562H2998.67V378.653L2795.39 378.653V562ZM1853.41 377.324V193.976L1619.58 193.976V377.324H1853.41ZM2323.74 377.324L2089.9 377.324V193.976L2323.74 193.976V377.324ZM2558.9 377.324L2325.07 377.324V193.976L2558.9 193.976V377.324ZM2794.06 377.324H2560.23V193.976L2794.06 193.976V377.324ZM2998.67 377.324L2795.39 377.324V193.976L2998.67 193.976V377.324ZM1619.58 1.32855H1853.41V192.648L1619.58 192.648V1.32855ZM2089.9 192.648L2323.74 192.648V1.32855H2089.9V192.648ZM2325.07 192.648L2558.9 192.648V1.32855H2325.07V192.648ZM2560.23 192.648L2794.06 192.648V1.32855H2560.23V192.648ZM2795.39 192.648L2998.67 192.648V1.32855H2795.39V192.648ZM1178.48 1117.36V1300.71H944.644V1117.36H1178.48ZM943.316 1117.36V1300.71H709.481V1117.36H943.316ZM708.152 1117.36V1300.71H474.317V1117.36L708.152 1117.36ZM472.989 1117.36V1300.71H239.154V1117.36H472.989ZM237.825 1117.36V1300.71H3.99079V1117.36H237.825ZM2.66218 1117.36V1300.71L-231.171 1300.71L-231.171 1117.36H2.66218ZM2.6622 1116.03H-231.171L-231.171 932.682H2.6622V1116.03ZM237.825 1116.03H3.99081V932.682L237.825 932.682V1116.03ZM472.989 1116.03H239.154V932.682H472.989V1116.03ZM708.152 1116.03L474.317 1116.03V932.682H708.152V1116.03ZM943.316 1116.03H709.481V932.682H943.316V1116.03ZM1178.48 1116.03H944.644V932.682L1178.48 932.682V1116.03ZM1178.48 748.005V931.353L944.644 931.353V748.006L1178.48 748.005ZM943.316 748.006V931.353H709.481V748.006H943.316ZM708.152 748.006V931.353H474.317V748.006H708.152ZM472.989 748.006V931.353H239.154V748.006H472.989ZM237.825 748.006V931.353L3.99081 931.353V748.006L237.825 748.006ZM2.6622 748.006V931.353H-231.171L-231.171 748.006H2.6622ZM2.66221 746.677H-231.171L-231.171 563.329H2.66221V746.677ZM237.826 746.677L3.99082 746.677V563.329L237.826 563.329V746.677ZM472.989 746.677H239.154V563.329H472.989V746.677ZM708.152 746.677H474.317V563.329H708.152V746.677ZM943.316 746.677H709.481V563.329H943.316V746.677ZM1178.48 746.677L944.644 746.677V563.329L1178.48 563.329V746.677ZM1178.48 378.653V562L944.644 562V378.653H1178.48ZM943.316 378.653V562H709.481V378.653L943.316 378.653ZM708.152 378.653V562H474.317V378.653L708.152 378.653ZM472.989 378.653V562H239.154V378.653L472.989 378.653ZM237.826 378.653V562L3.99082 562V378.653H237.826ZM2.66221 378.653V562H-231.171L-231.171 378.653L2.66221 378.653ZM2.66223 377.325L-231.171 377.325L-231.171 193.977L2.66223 193.977V377.325ZM237.826 377.325H3.99084V193.977L237.826 193.977V377.325ZM472.989 377.324L239.154 377.325V193.977L472.989 193.977V377.324ZM708.152 377.324L474.317 377.324V193.977L708.152 193.977V377.324ZM943.316 377.324L709.481 377.324V193.977L943.316 193.977V377.324ZM1178.48 377.324H944.644V193.977L1178.48 193.976V377.324ZM1178.48 1.32874V192.648L944.644 192.648V1.32874H1178.48ZM943.316 1.32874V192.648L709.481 192.648V1.32874H943.316ZM708.152 1.32874V192.648L474.317 192.648V1.32874H708.152ZM472.989 1.32874V192.648L239.154 192.648V1.32874H472.989ZM237.826 1.32874V192.648L3.99084 192.648L3.99085 1.32874H237.826ZM2.66224 1.32874L2.66223 192.648L-231.171 192.648L-231.171 1.32874H2.66224Z" fill="url(#paint0_linear_1270_9596)"/>
</g>
<defs>
<linearGradient id="paint0_linear_1270_9596" x1="20.625" y1="-42.5002" x2="2077.5" y2="666.25" gradientUnits="userSpaceOnUse">
<stop stop-color="white"/>
<stop offset="0.775" stop-color="#B8E1F4" stop-opacity="0.27"/>
</linearGradient>
<clipPath id="clip0_1270_9596">
<rect width="2400" height="1280" fill="white"/>
</clipPath>
</defs>
</svg>
