<svg width="134" height="55" viewBox="0 0 134 55" fill="none" xmlns="http://www.w3.org/2000/svg">
<path d="M61.7981 33.9677C60.8853 33.9677 60.0361 33.8117 59.2504 33.4997C58.4763 33.1762 57.7946 32.7256 57.2054 32.1479C56.6277 31.5702 56.177 30.9001 55.8535 30.1375C55.53 29.3634 55.3683 28.5315 55.3683 27.6418C55.3683 26.7521 55.53 25.926 55.8535 25.1634C56.177 24.3893 56.6277 23.7192 57.2054 23.153C57.7831 22.5869 58.459 22.1478 59.2331 21.8359C60.0188 21.5123 60.868 21.3506 61.7808 21.3506C62.7513 21.3506 63.6121 21.5066 64.3631 21.8185C65.0077 22.0822 65.5821 22.4284 66.0863 22.8572C66.2386 22.9867 66.2409 23.2174 66.1002 23.3595L64.7984 24.6736C64.6554 24.818 64.4221 24.8128 64.2676 24.6809C64.0021 24.4543 63.6989 24.2685 63.3579 24.1236C62.9073 23.9272 62.3816 23.8289 61.7808 23.8289C61.2493 23.8289 60.7582 23.9214 60.3076 24.1062C59.8686 24.2796 59.4873 24.5337 59.1638 24.8688C58.8518 25.2039 58.6034 25.6083 58.4185 26.082C58.2452 26.5557 58.1586 27.0756 58.1586 27.6418C58.1586 28.2195 58.2452 28.7452 58.4185 29.2189C58.6034 29.6927 58.8518 30.097 59.1638 30.4321C59.4873 30.7672 59.8686 31.0271 60.3076 31.212C60.7582 31.3969 61.2493 31.4893 61.7808 31.4893C62.4047 31.4893 62.9478 31.3911 63.4099 31.1947C63.7553 31.0479 64.0653 30.8591 64.3397 30.6284C64.4928 30.4997 64.7217 30.4961 64.8632 30.6376L66.1792 31.9536C66.323 32.0974 66.3188 32.3329 66.1618 32.4621C65.6414 32.8904 65.0591 33.2363 64.4151 33.4997C63.6641 33.8117 62.7918 33.9677 61.7981 33.9677Z" fill="black"/>
<path d="M52.1392 33.777C51.9415 33.777 51.7812 33.6168 51.7812 33.4191V21.8992C51.7812 21.7015 51.9415 21.5412 52.1392 21.5412H54.1443C54.342 21.5412 54.5022 21.7015 54.5022 21.8992V33.4191C54.5022 33.6168 54.342 33.777 54.1443 33.777H52.1392Z" fill="black"/>
<path d="M67.0746 33.4191C67.0746 33.6168 67.2349 33.777 67.4326 33.777H69.4377C69.4503 33.777 69.4627 33.7764 69.475 33.7751C69.4873 33.7764 69.4997 33.777 69.5123 33.777H75.5036C75.7013 33.777 75.8615 33.6168 75.8615 33.4191V31.778C75.8615 31.5803 75.7013 31.42 75.5036 31.42H69.7956V28.6643H74.897C75.0947 28.6643 75.2549 28.5041 75.2549 28.3064V26.7519C75.2549 26.5542 75.0947 26.394 74.897 26.394H69.7956V23.8809H75.4169C75.6146 23.8809 75.7749 23.7207 75.7749 23.523V21.8992C75.7749 21.7015 75.6146 21.5412 75.4169 21.5412H69.5123C69.4997 21.5412 69.4873 21.5419 69.475 21.5432C69.4627 21.5419 69.4503 21.5412 69.4377 21.5412H67.4326C67.2349 21.5412 67.0746 21.7015 67.0746 21.8992V33.4191Z" fill="black"/>
<path fill-rule="evenodd" clip-rule="evenodd" d="M79.3085 33.777C79.2899 33.777 79.2717 33.7756 79.2538 33.7729C79.236 33.7756 79.2178 33.777 79.1992 33.777H77.2288C77.0311 33.777 76.8708 33.6168 76.8708 33.4191V21.8992C76.8708 21.7015 77.0311 21.5412 77.2288 21.5412H79.1992C79.2178 21.5412 79.236 21.5426 79.2538 21.5454C79.2717 21.5426 79.2899 21.5412 79.3085 21.5412H82.1221C82.9078 21.5412 83.5722 21.6857 84.1152 21.9745C84.6698 22.2634 85.0916 22.6504 85.3804 23.1357C85.6693 23.621 85.8137 24.1582 85.8137 24.7475C85.8137 25.4985 85.5711 26.134 85.0858 26.6539C84.8767 26.8779 84.6248 27.0719 84.3299 27.2358C84.7434 27.4384 85.0936 27.695 85.3804 28.0058C85.9466 28.6066 86.2296 29.346 86.2296 30.2241C86.2296 30.8943 86.0621 31.5009 85.727 32.0439C85.4035 32.5754 84.9298 32.9971 84.3059 33.3091C83.6935 33.621 82.954 33.777 82.0875 33.777H79.3085ZM79.5571 31.6626H81.8275C82.359 31.6626 82.775 31.5066 83.0754 31.1947C83.3758 30.8827 83.526 30.5014 83.526 30.0508C83.526 29.7389 83.4566 29.4616 83.318 29.2189C83.1793 28.9763 82.9829 28.7857 82.7287 28.647C82.4861 28.5084 82.1857 28.439 81.8275 28.439H79.5571V31.6626ZM81.6022 26.3766H79.5571V23.6556H81.6022C82.0528 23.6556 82.4168 23.7712 82.6941 24.0023C82.9714 24.2218 83.11 24.5569 83.11 25.0075C83.11 25.4696 82.9714 25.8162 82.6941 26.0473C82.4168 26.2669 82.0528 26.3766 81.6022 26.3766Z" fill="black"/>
<path d="M87.107 33.4191C87.107 33.6168 87.2673 33.777 87.465 33.777H89.47C89.4827 33.777 89.4951 33.7764 89.5074 33.7751C89.5197 33.7764 89.5321 33.777 89.5447 33.777H95.536C95.7337 33.777 95.8939 33.6168 95.8939 33.4191V31.778C95.8939 31.5803 95.7337 31.42 95.536 31.42H89.828V28.6643H94.9294C95.1271 28.6643 95.2873 28.5041 95.2873 28.3064V26.7519C95.2873 26.5542 95.1271 26.394 94.9294 26.394H89.828V23.8809H95.4493C95.647 23.8809 95.8073 23.7207 95.8073 23.523V21.8992C95.8073 21.7015 95.647 21.5412 95.4493 21.5412H89.5447C89.5321 21.5412 89.5197 21.5419 89.5074 21.5432C89.4951 21.5419 89.4827 21.5412 89.47 21.5412H87.465C87.2673 21.5412 87.107 21.7015 87.107 21.8992V33.4191Z" fill="black"/>
<path fill-rule="evenodd" clip-rule="evenodd" d="M99.6242 33.4191V28.7337H99.9815C99.9842 28.8006 100.006 28.8681 100.049 28.9282L103.451 33.6289C103.518 33.7219 103.626 33.777 103.741 33.777H106.058C106.355 33.777 106.522 33.4373 106.343 33.2018L102.862 28.6456C103.279 28.5715 103.661 28.4506 104.009 28.2831C104.633 27.9826 105.118 27.5667 105.465 27.0352C105.811 26.4922 105.985 25.8625 105.985 25.1461C105.985 24.4413 105.811 23.8174 105.465 23.2743C105.118 22.7313 104.639 22.3096 104.026 22.0092C103.414 21.6972 102.703 21.5412 101.895 21.5412H99.3409C99.3283 21.5412 99.3158 21.5419 99.3035 21.5432C99.2913 21.5419 99.2788 21.5412 99.2662 21.5412H97.2612C97.0635 21.5412 96.9032 21.7015 96.9032 21.8992V33.4191C96.9032 33.6168 97.0635 33.777 97.2612 33.777H99.2662C99.4639 33.777 99.6242 33.6168 99.6242 33.4191ZM101.565 26.7232H99.6242V23.6556H101.583C102.126 23.6556 102.542 23.8001 102.83 24.0889C103.119 24.3778 103.264 24.7417 103.264 25.1808C103.264 25.6545 103.114 26.03 102.813 26.3073C102.524 26.5846 102.108 26.7232 101.565 26.7232Z" fill="black"/>
<path d="M110.313 33.4824C111.099 33.8059 111.936 33.9677 112.826 33.9677C114.039 33.9677 115.108 33.7135 116.032 33.2051C116.968 32.6967 117.696 31.9457 118.216 30.952C118.748 29.9468 119.013 28.7106 119.013 27.2432V27.2025C119.013 27.0048 118.853 26.8446 118.655 26.8446H112.941C112.744 26.8446 112.583 27.0048 112.583 27.2025V28.7973C112.583 28.9928 112.74 29.1521 112.936 29.1552L116.099 29.2054C116.031 29.46 115.94 29.6956 115.824 29.9122C115.559 30.4206 115.172 30.8134 114.663 31.0907C114.166 31.3564 113.56 31.4893 112.843 31.4893C112.139 31.4893 111.515 31.3276 110.972 31.004C110.429 30.6805 110.001 30.2299 109.689 29.6522C109.377 29.0745 109.221 28.4044 109.221 27.6418C109.221 26.8792 109.377 26.2149 109.689 25.6487C110.013 25.071 110.457 24.6262 111.024 24.3142C111.59 23.9907 112.231 23.8289 112.947 23.8289C113.618 23.8289 114.218 23.956 114.75 24.2102C115.167 24.4098 115.542 24.6877 115.873 25.0439C116.02 25.2017 116.271 25.219 116.424 25.0664L117.758 23.7324C117.89 23.6008 117.899 23.3894 117.771 23.2547C117.243 22.7001 116.6 22.2561 115.842 21.9225C114.987 21.5412 114.033 21.3506 112.982 21.3506C112.069 21.3506 111.214 21.5123 110.417 21.8359C109.62 22.1478 108.921 22.5927 108.32 23.1704C107.731 23.7365 107.269 24.4009 106.933 25.1634C106.598 25.926 106.431 26.7521 106.431 27.6418C106.431 28.5315 106.593 29.3634 106.916 30.1375C107.251 30.9001 107.708 31.5702 108.285 32.1479C108.863 32.714 109.539 33.1589 110.313 33.4824Z" fill="black"/>
<path d="M15.9783 17.183C14.4453 19.1323 14.4453 21.9854 14.4453 27.6917C14.4453 33.398 14.4453 36.2511 15.9783 38.2004C16.3301 38.6478 16.7339 39.0516 17.1813 39.4034C17.3525 39.5381 17.5307 39.6609 17.7171 39.7729L25.263 23.1133C25.591 22.389 26.4218 22.04 27.1687 22.3127L31.9638 24.0633C32.4168 24.2286 32.7644 24.5991 32.9006 25.0617L37.2921 39.9761C37.617 39.8141 37.9173 39.6247 38.1987 39.4034C38.6461 39.0516 39.0499 38.6478 39.4017 38.2004C40.9347 36.2511 40.9347 33.398 40.9347 27.6917C40.9347 21.9854 40.9347 19.1323 39.4017 17.183C39.0499 16.7356 38.6461 16.3318 38.1987 15.98C36.2494 14.447 33.3963 14.447 27.69 14.447C21.9837 14.447 19.1306 14.447 17.1813 15.98C16.7339 16.3318 16.3301 16.7356 15.9783 17.183Z" fill="black"/>
</svg>
