<svg width="251" height="69" viewBox="0 0 251 69" fill="none" xmlns="http://www.w3.org/2000/svg">
<g clip-path="url(#clip0_3221_8978)">
<path d="M11.8223 26.589C12.7627 25.1219 14.0605 23.937 15.7156 23.0342C17.3708 22.1314 19.308 21.68 21.5274 21.68C24.123 21.68 26.474 22.3383 28.5806 23.6549C30.6871 24.9714 32.3423 26.8523 33.546 29.2974C34.7874 31.7425 35.4081 34.5826 35.4081 37.8176C35.4081 41.0527 34.7874 43.9115 33.546 46.3943C32.3423 48.8394 30.6871 50.739 28.5806 52.0932C26.474 53.4098 24.123 54.0681 21.5274 54.0681C19.3456 54.0681 17.4084 53.6167 15.7156 52.7139C14.0605 51.8111 12.7627 50.645 11.8223 49.2155V68.6258H2.17354V22.1314H11.8223V26.589ZM25.5901 37.8176C25.5901 35.4101 24.9129 33.5293 23.5587 32.1751C22.2421 30.7833 20.6058 30.0873 18.6497 30.0873C16.7313 30.0873 15.0949 30.7833 13.7407 32.1751C12.4241 33.5669 11.7658 35.4666 11.7658 37.874C11.7658 40.2815 12.4241 42.1812 13.7407 43.573C15.0949 44.9648 16.7313 45.6607 18.6497 45.6607C20.5682 45.6607 22.2045 44.9648 23.5587 43.573C24.9129 42.1435 25.5901 40.2251 25.5901 37.8176ZM54.8021 54.0681C51.7175 54.0681 48.9338 53.4098 46.4511 52.0932C44.006 50.7766 42.0687 48.8958 40.6393 46.4507C39.2475 44.0056 38.5516 41.1467 38.5516 37.874C38.5516 34.639 39.2663 31.7989 40.6957 29.3538C42.1252 26.8711 44.0812 24.9714 46.564 23.6549C49.0467 22.3383 51.8303 21.68 54.9149 21.68C57.9995 21.68 60.7831 22.3383 63.2659 23.6549C65.7486 24.9714 67.7047 26.8711 69.1341 29.3538C70.5635 31.7989 71.2783 34.639 71.2783 37.874C71.2783 41.1091 70.5447 43.968 69.0777 46.4507C67.6482 48.8958 65.6733 50.7766 63.153 52.0932C60.6703 53.4098 57.8866 54.0681 54.8021 54.0681ZM54.8021 45.7172C56.6453 45.7172 58.2064 45.04 59.4854 43.6858C60.802 42.3316 61.4602 40.3944 61.4602 37.874C61.4602 35.3537 60.8208 33.4164 59.5418 32.0622C58.3004 30.708 56.7581 30.0309 54.9149 30.0309C53.0341 30.0309 51.473 30.708 50.2316 32.0622C48.9903 33.3788 48.3696 35.3161 48.3696 37.874C48.3696 40.3944 48.9714 42.3316 50.1752 43.6858C51.4165 45.04 52.9588 45.7172 54.8021 45.7172ZM86.0458 26.589C86.9862 25.1219 88.284 23.937 89.9392 23.0342C91.5943 22.1314 93.5316 21.68 95.751 21.68C98.3465 21.68 100.698 22.3383 102.804 23.6549C104.911 24.9714 106.566 26.8523 107.77 29.2974C109.011 31.7425 109.632 34.5826 109.632 37.8176C109.632 41.0527 109.011 43.9115 107.77 46.3943C106.566 48.8394 104.911 50.739 102.804 52.0932C100.698 53.4098 98.3465 54.0681 95.751 54.0681C93.5692 54.0681 91.6319 53.6167 89.9392 52.7139C88.284 51.8111 86.9862 50.645 86.0458 49.2155V68.6258H76.3971V22.1314H86.0458V26.589ZM99.8136 37.8176C99.8136 35.4101 99.1365 33.5293 97.7823 32.1751C96.4657 30.7833 94.8294 30.0873 92.8733 30.0873C90.9548 30.0873 89.3185 30.7833 87.9643 32.1751C86.6477 33.5669 85.9894 35.4666 85.9894 37.874C85.9894 40.2815 86.6477 42.1812 87.9643 43.573C89.3185 44.9648 90.9548 45.6607 92.8733 45.6607C94.7917 45.6607 96.4281 44.9648 97.7823 43.573C99.1365 42.1435 99.8136 40.2251 99.8136 37.8176ZM124.342 26.589C125.283 25.1219 126.581 23.937 128.236 23.0342C129.891 22.1314 131.828 21.68 134.047 21.68C136.643 21.68 138.994 22.3383 141.101 23.6549C143.207 24.9714 144.862 26.8523 146.066 29.2974C147.307 31.7425 147.928 34.5826 147.928 37.8176C147.928 41.0527 147.307 43.9115 146.066 46.3943C144.862 48.8394 143.207 50.739 141.101 52.0932C138.994 53.4098 136.643 54.0681 134.047 54.0681C131.866 54.0681 129.928 53.6167 128.236 52.7139C126.581 51.8111 125.283 50.645 124.342 49.2155V68.6258H114.694V22.1314H124.342V26.589ZM138.11 37.8176C138.11 35.4101 137.433 33.5293 136.079 32.1751C134.762 30.7833 133.126 30.0873 131.17 30.0873C129.251 30.0873 127.615 30.7833 126.261 32.1751C124.944 33.5669 124.286 35.4666 124.286 37.874C124.286 40.2815 124.944 42.1812 126.261 43.573C127.615 44.9648 129.251 45.6607 131.17 45.6607C133.088 45.6607 134.725 44.9648 136.079 43.573C137.433 42.1435 138.11 40.2251 138.11 37.8176ZM157.843 18.8587C156.15 18.8587 154.758 18.3697 153.667 17.3916C152.614 16.376 152.087 15.1346 152.087 13.6676C152.087 12.1629 152.614 10.9215 153.667 9.9435C154.758 8.92784 156.15 8.42001 157.843 8.42001C159.498 8.42001 160.852 8.92784 161.905 9.9435C162.996 10.9215 163.542 12.1629 163.542 13.6676C163.542 15.1346 162.996 16.376 161.905 17.3916C160.852 18.3697 159.498 18.8587 157.843 18.8587ZM162.639 22.1314V53.6167H152.99V22.1314H162.639ZM188.816 21.7928C192.502 21.7928 195.436 22.9966 197.618 25.404C199.837 27.7739 200.947 31.0466 200.947 35.222V53.6167H191.355V36.5198C191.355 34.4133 190.809 32.7769 189.719 31.6108C188.628 30.4447 187.161 29.8616 185.317 29.8616C183.474 29.8616 182.007 30.4447 180.916 31.6108C179.825 32.7769 179.28 34.4133 179.28 36.5198V53.6167H169.631V22.1314H179.28V26.3068C180.258 24.915 181.574 23.8241 183.23 23.0342C184.885 22.2066 186.747 21.7928 188.816 21.7928ZM220.461 54.0681C217.715 54.0681 215.27 53.5979 213.125 52.6575C210.981 51.717 209.288 50.4381 208.047 48.8205C206.806 47.1654 206.11 45.3222 205.959 43.2909H215.495C215.608 44.3818 216.116 45.2658 217.019 45.9429C217.921 46.62 219.031 46.9585 220.348 46.9585C221.552 46.9585 222.473 46.7328 223.113 46.2814C223.79 45.7924 224.128 45.1717 224.128 44.4194C224.128 43.5166 223.658 42.8583 222.718 42.4445C221.777 41.9931 220.254 41.5041 218.147 40.9774C215.89 40.4508 214.009 39.9053 212.505 39.3411C211 38.7392 209.702 37.8176 208.611 36.5763C207.52 35.2973 206.975 33.5857 206.975 31.4415C206.975 29.6359 207.464 27.9996 208.442 26.5325C209.458 25.0279 210.925 23.8429 212.843 22.9777C214.799 22.1126 217.113 21.68 219.784 21.68C223.733 21.68 226.837 22.658 229.094 24.6141C231.388 26.5702 232.705 29.1657 233.043 32.4008H224.128C223.978 31.3099 223.489 30.4447 222.661 29.8052C221.871 29.1657 220.818 28.846 219.501 28.846C218.373 28.846 217.508 29.0717 216.906 29.5231C216.304 29.9369 216.003 30.5199 216.003 31.2723C216.003 32.1751 216.473 32.8522 217.414 33.3036C218.392 33.755 219.896 34.2064 221.928 34.6578C224.26 35.2597 226.16 35.8615 227.627 36.4634C229.094 37.0277 230.373 37.9681 231.464 39.2847C232.592 40.5636 233.175 42.294 233.213 44.4758C233.213 46.319 232.686 47.9742 231.633 49.4412C230.617 50.8707 229.131 51.9992 227.175 52.8267C225.257 53.6543 223.019 54.0681 220.461 54.0681Z" fill="black"/>
<path d="M243.63 54.0681C241.937 54.0681 240.545 53.5791 239.454 52.601C238.401 51.5854 237.874 50.344 237.874 48.877C237.874 47.3723 238.401 46.1121 239.454 45.0965C240.545 44.0808 241.937 43.573 243.63 43.573C245.285 43.573 246.639 44.0808 247.692 45.0965C248.783 46.1121 249.329 47.3723 249.329 48.877C249.329 50.344 248.783 51.5854 247.692 52.601C246.639 53.5791 245.285 54.0681 243.63 54.0681Z" fill="#86C5FF"/>
<circle cx="157.535" cy="13.5588" r="6.14376" fill="#86C5FF"/>
</g>
<defs>
<clipPath id="clip0_3221_8978">
<rect width="250" height="67.5182" fill="white" transform="translate(0.5 0.740723)"/>
</clipPath>
</defs>
</svg>
