<svg width="33" height="32" viewBox="0 0 33 32" fill="none" xmlns="http://www.w3.org/2000/svg">
<g clip-path="url(#clip0_3240_14894)">
<path d="M32.4147 16.1243C32.4147 15.0121 32.3265 13.8939 32.1385 12.7998H17.0547V19.1001H25.6925C25.334 21.1321 23.8611 23.1776 22.1747 24.3198L22.4959 28.1598L27.2947 28.1598C30.3209 25.3102 32.4147 21.102 32.4147 16.1243Z" fill="black"/>
<path d="M16.6647 32.0002C20.9897 32.0002 24.637 30.598 27.2945 28.1777L22.1745 24.3202C20.7367 25.286 18.8331 25.734 16.6706 25.734C12.487 25.734 8.72722 22.9471 7.45447 19.2002H2.33447V23.2787C5.05674 28.6257 10.6014 32.0002 16.6647 32.0002Z" fill="black"/>
<path d="M7.45457 19.2001C6.72099 17.2529 7.04099 14.7474 7.77457 12.8001L8.09457 8.96014L2.33455 8.64014C-0.149303 13.0704 -0.206395 18.6099 2.27746 23.0401L7.45457 19.2001Z" fill="black"/>
<path d="M16.9734 6.26388C19.3088 6.22899 21.5661 7.07799 23.2575 8.63642L27.9345 4.11812C24.973 1.43157 21.0424 -0.045454 16.9734 0.00106647C10.7795 0.00106647 5.11538 3.29015 2.33447 8.64L7.7759 12.8C9.07005 9.04929 12.6997 6.26388 16.9734 6.26388Z" fill="black"/>
</g>
<defs>
<clipPath id="clip0_3240_14894">
<rect width="32" height="32" fill="white" transform="translate(0.414551)"/>
</clipPath>
</defs>
</svg>
